<?xml version="1.0" standalone="no"?>
<!DOCTYPE svg PUBLIC "-//W3C//DTD SVG 20010904//EN"
 "http://www.w3.org/TR/2001/REC-SVG-20010904/DTD/svg10.dtd">
<svg version="1.0" xmlns="http://www.w3.org/2000/svg"
 width="21.000000pt" height="21.000000pt" viewBox="0 0 21.000000 21.000000"
 preserveAspectRatio="xMidYMid meet">
<metadata>
Created by potrace 1.16, written by Peter Selinger 2001-2019
</metadata>
<g transform="translate(0.000000,21.000000) scale(0.100000,-0.100000)"
fill="#000000" stroke="none">
<path d="M43 171 c-45 -40 -54 -61 -27 -61 12 0 15 -9 12 -42 -3 -42 -2 -43
27 -43 25 0 30 4 33 28 4 36 27 30 27 -7 -1 -24 2 -27 30 -24 28 3 30 6 33 45
2 24 7 43 13 43 20 0 7 24 -33 61 -24 21 -50 38 -58 38 -8 0 -34 -17 -57 -38z"/>
</g>
</svg>
